# xmcd
#
# Track frame offsets: 
#        150
#        7912
#        11127
#        14391
#        17089
#        21317
#        24535
#        27562
#        31219
#        32821
#        37004
#        39662
#
# Disc length: 598 seconds
#
# Revision: 0
# Processed by: cddbd v1.5.2PL0 Copyright (c) Steve Scherf et al.
# Submitted via: ExactAudioCopy v1.3
#
DISCID=8d02540c
DTITLE=Fred Chapellier - It Never Comes Easy
DYEAR=2016
DGENRE=Blues Rock
TTITLE0=It Never Comes Easy
TTITLE1=You Only Know My Name
TTITLE2=Let Me Be Your Loving Man
TTITLE3=Changed Minds
TTITLE4=A Silent Room
TTITLE5=Never Be Fooled Again
TTITLE6=Funk It
TTITLE7=Made In Memphis
TTITLE8=I Thank You
TTITLE9=I Have To Go
TTITLE10=Something Strange
TTITLE11=In The Lap Of The Gods
EXTD=
EXTT0=
EXTT1=
EXTT2=
EXTT3=
EXTT4=
EXTT5=
EXTT6=
EXTT7=
EXTT8=
EXTT9=
EXTT10=
EXTT11=
PLAYORDER=
